<svg width="140" height="22" viewBox="0 0 140 22" fill="none" xmlns="http://www.w3.org/2000/svg">
<path d="M44.0855 14.3837C43.3192 14.3837 42.6245 14.219 42.0015 13.8896C41.3856 13.553 40.8986 13.0911 40.5405 12.5038C40.1896 11.9094 40.0142 11.2398 40.0142 10.495C40.0142 9.75024 40.1896 9.08422 40.5405 8.49698C40.8986 7.90257 41.3856 7.44066 42.0015 7.11123C42.6245 6.77464 43.3228 6.60634 44.0962 6.60634C44.7479 6.60634 45.3352 6.72092 45.8579 6.95009C46.3879 7.17926 46.8319 7.50869 47.19 7.93838L46.0728 8.96964C45.5643 8.38239 44.9341 8.08877 44.1822 8.08877C43.7167 8.08877 43.3013 8.19261 42.9361 8.4003C42.5708 8.60082 42.2844 8.8837 42.0767 9.24893C41.8762 9.61417 41.7759 10.0295 41.7759 10.495C41.7759 10.9605 41.8762 11.3759 42.0767 11.7411C42.2844 12.1064 42.5708 12.3928 42.9361 12.6005C43.3013 12.801 43.7167 12.9013 44.1822 12.9013C44.9341 12.9013 45.5643 12.6041 46.0728 12.0097L47.19 13.0409C46.8319 13.4778 46.3879 13.8108 45.8579 14.04C45.328 14.2691 44.7372 14.3837 44.0855 14.3837ZM55.167 14.2548L55.1563 9.75382L52.9434 13.4599H52.1699L49.957 9.83976V14.2548H48.3242V6.73525H49.7637L52.5781 11.4081L55.3496 6.73525H56.7891L56.7998 14.2548H55.167ZM64.4901 12.8583V14.2548H58.6678V6.73525H64.3505V8.13174H60.3973V9.76456H63.8886V11.1181H60.3973V12.8583H64.4901ZM71.6429 8.15322H69.2366V14.2548H67.5178V8.15322H65.1223V6.73525H71.6429V8.15322ZM79.6321 6.73525V14.2548H77.8918V11.1718H74.4758V14.2548H72.7356V6.73525H74.4758V9.70011H77.8918V6.73525H79.6321ZM85.1577 9.20596C86.0744 9.20596 86.7762 9.41007 87.2632 9.81827C87.7573 10.2265 88.0044 10.8316 88.0044 11.6337C88.0044 12.4859 87.7323 13.1376 87.188 13.5888C86.6509 14.0328 85.8918 14.2548 84.9106 14.2548H81.5161V6.73525H83.2456V9.20596H85.1577ZM84.814 12.9658C85.2651 12.9658 85.616 12.8547 85.8667 12.6327C86.1245 12.4107 86.2534 12.0885 86.2534 11.6659C86.2534 10.8853 85.7736 10.495 84.814 10.495H83.2456V12.9658H84.814ZM88.9605 6.73525H90.69V14.2548H88.9605V6.73525ZM92.5626 6.73525H94.2921V11.6337L97.88 6.73525H99.5128V14.2548H97.794V9.3671L94.2061 14.2548H92.5626V6.73525ZM96.0323 6.25185C94.6573 6.25185 93.9626 5.70399 93.9483 4.60828H95.1407C95.155 5.13107 95.4522 5.39247 96.0323 5.39247C96.3188 5.39247 96.5372 5.32801 96.6876 5.19911C96.838 5.06304 96.9168 4.8661 96.9239 4.60828H98.1163C98.1091 5.14539 97.9337 5.5536 97.5899 5.8329C97.2462 6.1122 96.727 6.25185 96.0323 6.25185ZM108.015 14.3837C107.235 14.3837 106.529 14.2154 105.899 13.8788C105.276 13.5423 104.785 13.0803 104.427 12.4931C104.076 11.8987 103.901 11.2327 103.901 10.495C103.901 9.7574 104.076 9.09496 104.427 8.50772C104.785 7.91331 105.276 7.44782 105.899 7.11123C106.529 6.77464 107.235 6.60634 108.015 6.60634C108.796 6.60634 109.498 6.77464 110.121 7.11123C110.744 7.44782 111.234 7.91331 111.592 8.50772C111.95 9.09496 112.129 9.7574 112.129 10.495C112.129 11.2327 111.95 11.8987 111.592 12.4931C111.234 13.0803 110.744 13.5423 110.121 13.8788C109.498 14.2154 108.796 14.3837 108.015 14.3837ZM108.015 12.9013C108.459 12.9013 108.86 12.801 109.218 12.6005C109.576 12.3928 109.856 12.1064 110.056 11.7411C110.264 11.3759 110.368 10.9605 110.368 10.495C110.368 10.0295 110.264 9.61417 110.056 9.24893C109.856 8.8837 109.576 8.60082 109.218 8.4003C108.86 8.19261 108.459 8.08877 108.015 8.08877C107.571 8.08877 107.17 8.19261 106.812 8.4003C106.454 8.60082 106.171 8.8837 105.963 9.24893C105.763 9.61417 105.663 10.0295 105.663 10.495C105.663 10.9605 105.763 11.3759 105.963 11.7411C106.171 12.1064 106.454 12.3928 106.812 12.6005C107.17 12.801 107.571 12.9013 108.015 12.9013ZM122.375 10.4735C122.375 11.469 122.035 12.2532 121.355 12.8261C120.682 13.3919 119.711 13.707 118.444 13.7714V14.5878H116.843V13.7607C115.568 13.6891 114.591 13.3704 113.911 12.8046C113.237 12.2317 112.901 11.4547 112.901 10.4735C112.901 9.48526 113.237 8.71182 113.911 8.15322C114.591 7.58747 115.568 7.2652 116.843 7.18642V6.41298H118.444V7.17568C119.711 7.24729 120.682 7.56956 121.355 8.14248C122.035 8.7154 122.375 9.49242 122.375 10.4735ZM118.444 12.4072C119.203 12.3355 119.769 12.1422 120.141 11.8271C120.513 11.5048 120.7 11.0501 120.7 10.4628C120.7 9.31697 119.948 8.67959 118.444 8.55069V12.4072ZM114.587 10.4735C114.587 11.6051 115.339 12.2496 116.843 12.4072V8.55069C116.077 8.6223 115.508 8.81566 115.135 9.13077C114.77 9.43871 114.587 9.88631 114.587 10.4735ZM123.677 6.73525H125.407V11.6337L128.995 6.73525H130.628V14.2548H128.909V9.3671L125.321 14.2548H123.677V6.73525ZM136.055 14.3837C135.289 14.3837 134.595 14.219 133.971 13.8896C133.356 13.553 132.869 13.0911 132.511 12.5038C132.16 11.9094 131.984 11.2398 131.984 10.495C131.984 9.75024 132.16 9.08422 132.511 8.49698C132.869 7.90257 133.356 7.44066 133.971 7.11123C134.595 6.77464 135.293 6.60634 136.066 6.60634C136.718 6.60634 137.305 6.72092 137.828 6.95009C138.358 7.17926 138.802 7.50869 139.16 7.93838L138.043 8.96964C137.534 8.38239 136.904 8.08877 136.152 8.08877C135.687 8.08877 135.271 8.19261 134.906 8.4003C134.541 8.60082 134.254 8.8837 134.047 9.24893C133.846 9.61417 133.746 10.0295 133.746 10.495C133.746 10.9605 133.846 11.3759 134.047 11.7411C134.254 12.1064 134.541 12.3928 134.906 12.6005C135.271 12.801 135.687 12.9013 136.152 12.9013C136.904 12.9013 137.534 12.6041 138.043 12.0097L139.16 13.0409C138.802 13.4778 138.358 13.8108 137.828 14.04C137.298 14.2691 136.707 14.3837 136.055 14.3837Z" fill="white"/>
<path d="M10.4396 0.718365C11.6548 0.718365 12.8453 0.925236 13.9779 1.33324C15.0347 1.7139 16.0181 2.26063 16.9027 2.95913L9.09418 10.7679L9.0172 10.8449L9.09418 10.9219L17.2462 19.0739C16.3348 19.8585 15.3065 20.4741 14.1879 20.9046C12.9928 21.3645 11.7317 21.5977 10.4396 21.5977C9.0302 21.5977 7.66303 21.3217 6.37605 20.7774C5.13293 20.2516 4.01647 19.4989 3.05769 18.5401C2.09891 17.5813 1.34618 16.4649 0.82039 15.2217C0.276057 13.9348 5.84202e-05 12.5676 5.8539e-05 11.1582C5.86578e-05 9.74878 0.276058 8.38159 0.820391 7.0946C1.34618 5.85145 2.09892 4.73496 3.05769 3.77614C4.01648 2.81732 5.13294 2.06455 6.37605 1.53874C7.66303 0.994379 9.0302 0.718365 10.4396 0.718365Z" fill="white"/>
<path d="M11.0128 10.8448L21.4553 21.2873L31.8979 10.8448L21.4553 0.402248L11.0128 10.8448Z" fill="white"/>
</svg>
